<svg width="117" height="117" viewBox="0 0 117 117" fill="none" xmlns="http://www.w3.org/2000/svg">
<path d="M58.5 0L58.5113 58.4424L80.8871 4.45303L58.5326 58.4514L99.8656 17.1343L58.5486 58.4674L112.547 36.1129L58.5576 58.4887L117 58.5L58.5576 58.5113L112.547 80.8871L58.5486 58.5326L99.8656 99.8656L58.5326 58.5486L80.8871 112.547L58.5113 58.5576L58.5 117L58.4887 58.5576L36.1129 112.547L58.4674 58.5486L17.1343 99.8656L58.4514 58.5326L4.45303 80.8871L58.4424 58.5113L0 58.5L58.4424 58.4887L4.45303 36.1129L58.4514 58.4674L17.1343 17.1343L58.4674 58.4514L36.1129 4.45303L58.4887 58.4424L58.5 0Z" stroke="#89A280" stroke-width="4"/>
</svg>
