<svg width="85" height="85" viewBox="0 0 85 85" fill="none" xmlns="http://www.w3.org/2000/svg">
<path d="M40.0442 2.10007C30.851 -1.82119 20.2196 2.45257 16.2984 11.6458C12.377 20.8391 16.6509 31.4703 25.8441 35.3916C16.6509 31.4703 6.01954 35.744 2.09822 44.9373C-1.8231 54.1306 2.45071 64.7619 11.6439 68.6831C20.8373 72.6045 31.4684 68.3308 35.3897 59.1374C31.4684 68.3308 35.7421 78.962 44.9354 82.8833C54.1288 86.8046 64.76 82.5309 68.6813 73.3376C72.6026 64.1442 68.3289 53.5131 59.1356 49.5918C68.3289 53.5131 78.9601 49.2394 82.8814 40.0461C86.8027 30.8529 82.5291 20.2215 73.3357 16.3002C64.1424 12.3789 53.5112 16.6527 49.5899 25.8459C53.5112 16.6527 49.2375 6.02139 40.0442 2.10007Z" fill="#FF5C00"/>
</svg>
