<svg width="329" height="329" viewBox="0 0 329 329" fill="none" xmlns="http://www.w3.org/2000/svg">
<path d="M101.173 13.581L164.723 164.593L163.864 0.755945L164.787 164.593L226.691 12.8986L164.846 164.617L280.089 48.159L164.892 164.662L315.929 101.171L164.917 164.72L328.753 163.862L164.917 164.785L316.611 226.689L164.893 164.844L281.351 280.087L164.848 164.89L228.339 315.926L164.789 164.915L165.647 328.751L164.725 164.915L102.821 316.609L164.666 164.891L49.4227 281.348L164.619 164.846L13.5831 228.337L164.595 164.787L0.758052 165.645L164.595 164.722L12.9006 102.819L164.619 164.664L48.1611 49.4206L164.664 164.617L101.173 13.581Z" stroke="#FF5C00" stroke-opacity="0.15" stroke-width="4"/>
</svg>
