<svg width="32" height="32" viewBox="0 0 32 32" fill="none" xmlns="http://www.w3.org/2000/svg">
<path d="M13.566 29.7068C12.8087 29.7068 12.0893 29.3282 11.5971 28.6593L10.0826 26.6399C10.0826 26.6525 10.0195 26.6146 9.99423 26.6146H9.52726C5.21084 26.6146 2.53516 25.4409 2.53516 19.6226V14.5741C2.53516 9.26065 5.77879 7.87233 8.50495 7.63253C8.80786 7.59466 9.16124 7.58203 9.52726 7.58203H17.6047C22.1736 7.58203 24.5968 10.0053 24.5968 14.5741V19.6226C24.5968 19.9886 24.5842 20.342 24.5337 20.6827C24.3065 23.371 22.9182 26.6146 17.6047 26.6146H17.0999L15.5349 28.6593C15.0426 29.3282 14.3232 29.7068 13.566 29.7068ZM9.52726 9.4752C9.23697 9.4752 8.9593 9.48782 8.69426 9.51306C5.76616 9.76548 4.42832 11.3684 4.42832 14.5741V19.6226C4.42832 23.9516 5.76617 24.7215 9.52726 24.7215H10.0321C10.6 24.7215 11.2437 25.037 11.5971 25.4914L13.1116 27.5233C13.3893 27.902 13.7427 27.902 14.0204 27.5233L15.5349 25.504C15.9009 25.0118 16.4815 24.7215 17.0999 24.7215H17.6047C20.8105 24.7215 22.4134 23.371 22.6532 20.4934C22.6911 20.1905 22.7037 19.9129 22.7037 19.6226V14.5741C22.7037 11.0528 21.126 9.4752 17.6047 9.4752H9.52726Z" fill="#CFD9A7"/>
<path d="M13.5668 18.868C12.86 18.868 12.3047 18.3 12.3047 17.6059C12.3047 16.9117 12.8726 16.3438 13.5668 16.3438C14.261 16.3438 14.8289 16.9117 14.8289 17.6059C14.8289 18.3 14.2736 18.868 13.5668 18.868Z" fill="#CFD9A7"/>
<path d="M17.6059 18.868C16.8991 18.868 16.3438 18.3 16.3438 17.6059C16.3438 16.9117 16.9117 16.3438 17.6059 16.3438C18.3 16.3438 18.868 16.9117 18.868 17.6059C18.868 18.3 18.3 18.868 17.6059 18.868Z" fill="#CFD9A7"/>
<path d="M9.53945 18.868C8.83267 18.868 8.27734 18.3 8.27734 17.6059C8.27734 16.9117 8.84529 16.3438 9.53945 16.3438C10.2336 16.3438 10.8016 16.9117 10.8016 17.6059C10.8016 18.3 10.2336 18.868 9.53945 18.868Z" fill="#CFD9A7"/>
<path d="M23.5991 21.5173C23.3467 21.5173 23.0943 21.4163 22.9176 21.227C22.7157 21.0251 22.6273 20.7348 22.6652 20.4571C22.7031 20.1921 22.7157 19.9144 22.7157 19.6241V14.5757C22.7157 11.0544 21.138 9.47676 17.6168 9.47676H9.53922C9.24894 9.47676 8.97131 9.48938 8.70626 9.51462C8.4286 9.55248 8.1383 9.4515 7.93636 9.26218C7.73442 9.06025 7.62082 8.78261 7.64606 8.50495C7.87324 5.77879 9.27418 2.53516 14.5877 2.53516H22.6652C27.234 2.53516 29.6573 4.95842 29.6573 9.52725V14.5757C29.6573 19.8892 26.4137 21.2775 23.6875 21.5173C23.6496 21.5173 23.6244 21.5173 23.5991 21.5173ZM9.69071 7.58359H17.6041C22.173 7.58359 24.5962 10.0069 24.5962 14.5757V19.4601C26.7418 18.93 27.7515 17.3523 27.7515 14.5757V9.52725C27.7515 6.00597 26.1738 4.42832 22.6526 4.42832H14.5751C11.7984 4.42832 10.2334 5.43801 9.69071 7.58359Z" fill="#CFD9A7"/>
</svg>
