<svg width="114" height="152" viewBox="0 0 114 152" fill="none" xmlns="http://www.w3.org/2000/svg">
<path fill-rule="evenodd" clip-rule="evenodd" d="M77.549 69.736C70.2553 54.1469 51.7441 47.3697 36.1444 54.5996C51.7789 47.3536 58.5682 28.7816 51.3089 13.1182C58.6023 28.7074 77.1137 35.4845 92.7135 28.2546C77.0787 35.5007 70.2896 54.0726 77.549 69.736Z" fill="#FF5C00"/>
<path d="M98.6612 118.55C86.7281 118.967 75.8918 125.964 70.5829 136.681C70.1519 124.775 63.2022 113.97 52.5518 108.662C64.4847 108.244 75.3211 101.248 80.6301 90.53C81.061 102.437 88.0108 113.241 98.6612 118.55Z" stroke="#FF5C00" stroke-width="2"/>
<path d="M32.0775 82.1919C28.7615 86.3826 27.5192 91.8979 28.7164 97.1135C24.5351 93.8122 19.0476 92.5665 13.8573 93.7433C17.1732 89.5527 18.4155 84.0374 17.2185 78.8218C21.3997 82.1231 26.8871 83.3687 32.0775 82.1919Z" stroke="#FF5C00" stroke-width="2"/>
</svg>
