<svg width="42" height="41" viewBox="0 0 42 41" fill="none" xmlns="http://www.w3.org/2000/svg">
<path fill-rule="evenodd" clip-rule="evenodd" d="M41.6562 20.5C41.6562 31.8218 32.4781 41 21.1562 41C9.83444 41 0.65625 31.8218 0.65625 20.5C0.65625 9.17819 9.83444 0 21.1562 0C32.4781 0 41.6562 9.17819 41.6562 20.5ZM14.384 18.6221C12.3304 19.5187 10.2204 20.44 8.29101 21.5028C7.28353 22.2404 8.62253 22.7623 9.87877 23.2517C10.0785 23.3295 10.276 23.4065 10.4618 23.4833C10.6164 23.5309 10.7736 23.581 10.9329 23.6317C12.3301 24.0768 13.8879 24.5732 15.2443 23.8266C17.4725 22.5466 19.5752 21.0668 21.6764 19.5882C22.3647 19.1037 23.0529 18.6194 23.7453 18.1422C23.7778 18.1215 23.8143 18.0977 23.8544 18.0719C24.4442 17.6894 25.7708 16.8296 25.2801 18.0145C24.1198 19.2834 22.8769 20.4066 21.6273 21.5361C20.7851 22.2973 19.9398 23.0612 19.1147 23.8744C18.3961 24.4583 17.6498 25.6325 18.4545 26.4502C20.308 27.7477 22.1904 29.0137 24.0717 30.2791C24.6839 30.6908 25.2961 31.1025 25.907 31.5152C26.9424 32.3419 28.5606 31.6732 28.7882 30.3814C28.8895 29.7872 28.9911 29.193 29.0927 28.5988C29.6544 25.3148 30.2163 22.0296 30.7127 18.7349C30.7801 18.218 30.8566 17.7012 30.9331 17.1842C31.1186 15.9311 31.3043 14.6764 31.3623 13.4165C31.2128 12.1591 29.6883 12.4356 28.8399 12.7184C24.4792 14.3777 20.1621 16.16 15.862 17.9737C15.3749 18.1895 14.8811 18.4051 14.384 18.6221Z" fill="white"/>
</svg>
