<svg width="251" height="347" viewBox="0 0 251 347" fill="none" xmlns="http://www.w3.org/2000/svg">
<path d="M57.8035 345.55C68.8609 347.067 79.6003 344.907 88.7796 339.994C102.594 332.6 112.846 318.985 115.265 302.416C115.277 302.377 115.286 302.338 115.294 302.298C115.3 302.259 115.306 302.22 115.311 302.182L115.319 302.122C115.324 302.081 115.328 302.042 115.333 302.003L123.552 242.731L177.429 268.769C177.484 268.799 177.535 268.818 177.587 268.841C177.611 268.852 177.634 268.863 177.66 268.876C202.936 280.95 233.382 270.295 245.608 245.064C257.858 219.822 247.303 189.341 222.124 177.015L222.066 176.982C222.017 176.953 221.978 176.933 221.928 176.918L168.105 150.82L209.562 107.631C229.037 87.3443 228.384 54.9777 208.099 35.5178C187.817 16.0585 155.461 16.7139 135.952 36.9906L94.4606 80.1117L66.1927 27.3496C52.9066 2.58295 21.9308 -6.78559 -2.86189 6.48379C-27.6546 19.7532 -37.0404 50.7237 -23.7886 75.5377L4.38778 128.291L-54.507 138.898C-54.5269 138.908 -54.5534 138.917 -54.5814 138.923C-54.6176 138.932 -54.6568 138.936 -54.6888 138.937C-82.288 143.989 -100.689 170.499 -95.7497 198.115C-90.8112 225.728 -64.3791 244.182 -36.7737 239.358C-36.7484 239.353 -36.7247 239.35 -36.7018 239.348L-36.6022 239.336L-36.5574 239.329L22.3503 228.801L14.2124 288.061C14.2132 288.089 14.2085 288.12 14.2038 288.152C14.1987 288.184 14.1941 288.215 14.1949 288.243C10.4629 316.043 30.0062 341.742 57.8035 345.55Z" fill="#CFD9A7"/>
</svg>
