<svg width="183" height="183" viewBox="0 0 183 183" fill="none" xmlns="http://www.w3.org/2000/svg">
<path d="M136.658 1.55224C138.538 -1.13619 142.705 1.0974 141.506 4.15143L131.451 29.7706C118.467 62.8519 129.843 100.52 158.967 120.885L181.522 136.656C184.211 138.537 181.977 142.703 178.923 141.504L153.304 131.449C120.223 118.466 82.5541 129.842 62.1896 158.966L46.4185 181.521C44.538 184.209 40.3717 181.976 41.5702 178.921L51.6252 153.302C64.6089 120.221 53.233 82.5525 24.1087 62.1878L1.55385 46.4167C-1.13457 44.5365 1.09901 40.3701 4.15304 41.5684L29.7722 51.6234C62.8535 64.6072 100.522 53.2314 120.887 24.1071L136.658 1.55224Z" fill="#FF5C00"/>
</svg>
