<svg width="460" height="540" viewBox="0 0 460 540" fill="none" xmlns="http://www.w3.org/2000/svg">
<path fill-rule="evenodd" clip-rule="evenodd" d="M450.04 252.481C432.063 283.941 394.248 296.97 361.346 284.821C388.516 307.001 396.486 346.196 378.509 377.654C360.531 409.112 322.716 422.142 289.814 409.993C316.984 432.173 324.954 471.368 306.977 502.826C286.95 537.871 242.304 550.046 207.259 530.019C175.801 512.042 162.771 474.227 174.92 441.325C152.739 468.495 113.545 476.465 82.0864 458.488C50.6281 440.51 37.5981 402.695 49.7471 369.793C27.5669 396.963 -11.6269 404.934 -43.0861 386.956C-78.1316 366.929 -90.3059 322.283 -70.279 287.238C-52.3017 255.78 -14.4866 242.75 18.4148 254.898C-8.75412 232.719 -16.7247 193.524 1.25264 162.066C19.2299 130.607 57.0451 117.577 89.9464 129.726C62.7775 107.546 54.8065 68.3522 72.7843 36.893C92.8116 1.84748 137.457 -10.3272 172.502 9.70008C203.962 27.6779 216.991 65.4925 204.842 98.3939C227.022 71.225 266.217 63.2544 297.675 81.2317C329.133 99.209 342.163 137.024 330.015 169.926C352.194 142.757 391.389 134.786 422.847 152.763C457.892 172.79 470.068 217.436 450.04 252.481ZM192.81 119.449C173.159 143.521 140.152 152.522 111.001 141.758C135.073 161.409 144.074 194.417 133.31 223.567C152.961 199.495 185.969 190.494 215.12 201.258C191.048 181.607 182.046 148.599 192.81 119.449ZM236.173 213.289C265.324 224.053 298.331 215.052 317.982 190.981C307.219 220.131 316.22 253.138 340.292 272.79C311.142 262.026 278.134 271.027 258.482 295.099C269.246 265.948 260.245 232.94 236.173 213.289ZM186.951 420.271C206.602 396.199 239.61 387.198 268.761 397.962C244.689 378.311 235.687 345.303 246.451 316.152C226.8 340.224 193.792 349.225 164.641 338.462C188.713 358.113 197.715 391.121 186.951 420.271ZM121.279 244.621C110.515 273.771 119.516 306.779 143.588 326.43C114.437 315.667 81.4294 324.668 61.7783 348.74C72.5421 319.589 63.5416 286.581 39.4698 266.93C68.6204 277.694 101.628 268.692 121.279 244.621Z" fill="#CFD9A7" fill-opacity="0.3"/>
</svg>
