<svg width="233" height="354" viewBox="0 0 233 354" fill="none" xmlns="http://www.w3.org/2000/svg">
<path fill-rule="evenodd" clip-rule="evenodd" d="M322.911 266.683C322.911 266.683 365.762 200.79 350.24 135.848C334.718 70.9077 266.703 31.5122 266.703 31.5122C266.703 31.5122 266.482 31.8513 266.079 32.5053C266.248 32.2288 266.382 32.0058 266.481 31.8416C266.615 31.6165 266.682 31.499 266.682 31.499C266.682 31.499 200.789 -11.3512 135.847 4.16969C70.9064 19.6917 31.5109 87.7068 31.5109 87.7068C31.5109 87.7068 97.4051 130.557 162.345 115.035C221.703 100.849 259.72 42.8072 265.817 32.9309C259.767 42.8362 225.188 102.99 239.375 162.346C254.896 227.287 322.911 266.683 322.911 266.683ZM4.16871 218.562C-11.3525 153.622 31.4977 87.7284 31.4977 87.7284C31.4977 87.7284 99.5132 127.125 115.034 192.065C129.222 251.423 94.6433 311.576 88.5913 321.481C94.6905 311.605 132.707 253.563 192.064 239.376C257.004 223.855 322.898 266.705 322.898 266.705C322.898 266.705 283.503 334.72 218.561 350.241C153.621 365.762 87.7271 322.913 87.7271 322.913C87.7271 322.913 87.9297 322.561 88.3303 321.906C87.927 322.56 87.7055 322.899 87.7055 322.899C87.7055 322.899 19.6906 283.503 4.16871 218.562Z" fill="#FF5C00"/>
</svg>
