<svg width="211" height="149" viewBox="0 0 211 149" fill="none" xmlns="http://www.w3.org/2000/svg">
<path d="M2.02585 137.84C2.26349 137.905 2.48301 137.986 2.72074 138.067C2.57445 138.019 2.4281 137.954 2.28181 137.905C3.79994 138.488 5.15536 139.361 6.49236 140.202C7.90254 141.074 9.29454 141.963 10.6866 142.868C11.4743 143.385 12.262 143.919 13.0498 144.452C12.9216 144.371 12.8116 144.29 12.6833 144.193C13.5993 144.807 14.479 145.47 15.4131 146.068C16.5488 146.811 18.1192 146.927 19.3017 146.204C20.1385 145.69 20.81 144.983 21.555 144.356C22.2272 143.777 22.9177 143.214 23.6267 142.684C24.4265 142.073 25.2446 141.478 26.0629 140.916C25.9356 140.996 25.8265 141.077 25.6992 141.173C27.9542 139.631 30.3379 138.266 32.8502 137.062C33.5602 136.725 34.2885 136.388 35.0351 136.067C35.4358 135.907 35.7619 135.472 35.8694 135.102C35.9951 134.716 35.9375 134.2 35.6802 133.861C35.4228 133.522 35.0561 133.215 34.581 133.118C34.0876 133.02 33.6317 133.084 33.1764 133.276C28.4783 135.297 24.1301 137.915 20.2774 141.002C19.7503 141.419 19.2416 141.854 18.7329 142.288C18.2424 142.722 17.7704 143.204 17.2249 143.59C17.3523 143.51 17.4613 143.429 17.5886 143.333C17.4431 143.429 17.2975 143.509 17.1154 143.59C17.2612 143.542 17.4069 143.477 17.5527 143.429C17.4251 143.477 17.2975 143.509 17.1699 143.525C17.334 143.51 17.4982 143.494 17.6623 143.462C17.5528 143.478 17.4251 143.477 17.3155 143.461C17.4799 143.478 17.6443 143.494 17.8087 143.527C17.6808 143.51 17.5712 143.478 17.4615 143.445C17.6078 143.494 17.7541 143.559 17.9004 143.607C17.6443 143.51 17.4246 143.381 17.2047 143.235C17.3329 143.316 17.4429 143.397 17.5712 143.494C13.962 141.022 10.3711 138.533 6.56254 136.318C5.46388 135.672 4.31095 135.122 3.0495 134.749C2.61074 134.619 2.02714 134.714 1.64488 134.907C1.26262 135.1 0.89974 135.486 0.810576 135.872C0.523256 136.742 1.05689 137.548 2.02585 137.84Z" fill="#FF5C00"/>
<path d="M207.215 19.8014C195.57 10.0505 180.441 3.6993 164.568 1.38185C148.604 -0.935407 132.006 0.700828 117.275 6.71712C103.02 12.5404 90.9968 22.3109 82.7017 33.9773C78.5451 39.8105 75.3205 46.1857 73.2102 52.8145C71.0817 59.4914 69.9764 66.598 70.5145 73.525C71.0711 80.66 73.5273 88.0629 79.6149 93.1217C86.068 98.4518 94.8196 101.649 103.568 102.606C112.427 103.562 121.758 102.79 130.027 99.748C133.696 98.3959 137.219 96.6922 140.065 94.2379C142.6 92.0564 144.697 89.4117 146.246 86.6082C149.162 81.3537 150.852 74.5179 147.266 69.1815C145.418 66.4335 142.238 64.3603 139.222 62.6549C135.714 60.6785 131.858 59.0708 127.876 58.0235C123.948 56.992 119.711 56.7132 115.638 56.4981C111.109 56.268 106.58 56.3099 102.051 56.6077C93.0119 57.2195 84.0471 58.8231 75.4669 61.4179C67.0876 63.9482 58.8007 67.3424 51.5744 71.8703C44.6035 76.2216 38.7664 81.7705 34.0441 88.005C23.5237 101.868 19.1427 118.374 17.0443 134.699C16.5016 138.925 16.1051 143.15 15.7815 147.39C15.7095 148.255 16.6784 148.989 17.6097 148.987C18.6507 148.984 19.362 148.247 19.434 147.383C20.6924 131.107 22.9547 114.382 30.917 99.4361C34.3242 93.0445 38.6816 87.0188 44.1539 81.8387C49.7722 76.5303 56.4512 72.4996 63.7886 69.2196C79.1206 62.3539 96.5753 59.0198 113.761 59.6223C117.706 59.7577 121.815 59.9567 125.651 60.8124C129.305 61.6365 132.794 63.0209 136.029 64.6939C138.843 66.1598 142.078 68.0568 143.834 70.421C145.389 72.4977 145.775 74.9129 145.577 77.4254C145.109 82.9306 141.665 88.5703 137.067 92.3404C134.44 94.5062 131.009 96.0497 127.613 97.1772C123.634 98.4979 119.434 99.3071 115.216 99.6203C106.871 100.246 98.3413 99.2731 90.7949 95.9774C87.1588 94.4013 83.6499 92.3609 80.9256 89.7108C78.4755 87.316 76.8101 84.3756 75.7471 81.3058C73.5478 74.9264 73.6853 67.9819 74.8278 61.4353C75.9522 55.0006 78.1724 48.6916 81.3794 42.7964C87.7385 31.0702 97.752 20.8401 110.235 13.8047C123.083 6.56045 138.2 3.15139 153.431 3.61419C168.608 4.0771 183.606 8.34851 196.07 15.9376C199.104 17.787 201.956 19.8448 204.625 22.0791C206.343 23.4834 208.915 21.2217 207.215 19.8014Z" fill="#FF5C00"/>
</svg>
