<svg width="37" height="36" viewBox="0 0 37 36" fill="none" xmlns="http://www.w3.org/2000/svg">
<g clip-path="url(#clip0_871_1992)">
<path d="M2.3876 13.6121C2.3876 13.2439 2.38647 12.8993 2.3876 12.5559C2.39443 11.3782 3.19816 10.5934 4.39693 10.6272C6.76144 10.6936 9.10432 10.9526 11.4267 11.3996C11.4848 11.4108 11.5451 11.4165 11.6043 11.4244C12.0768 7.6603 15.1482 5.48384 18.0854 5.30481C21.3982 5.10214 24.9592 7.51505 25.3804 11.4007C26.3583 11.2532 27.3317 11.0663 28.3141 10.9683C29.7838 10.8208 31.2592 10.7037 32.7346 10.6339C33.8002 10.5833 34.5926 11.3973 34.6085 12.458C34.6142 12.8374 34.6085 13.2169 34.6085 13.6019C35.7435 13.9071 36.5256 14.5624 36.8592 15.6703C36.9468 15.9597 36.9901 16.2738 36.9901 16.5767C36.998 22.0364 36.998 27.495 36.9935 32.9548C36.9924 34.7281 35.7048 36.0005 33.9106 36.0016C23.6295 36.005 13.3484 36.005 3.06611 36.0016C1.29358 36.0016 0.000323728 34.7259 -0.00195312 32.9784C-0.00195312 27.5164 -0.000814699 22.0567 0.00146215 16.597C0.00146215 15.1287 0.783561 14.1514 2.3876 13.6109V13.6121ZM11.6225 12.6438C9.25801 12.1562 6.89236 11.8939 4.50508 11.8083C3.80153 11.7835 3.58181 11.9986 3.58181 12.6865C3.58181 18.7847 3.58181 24.884 3.58181 30.9821C3.58181 31.6611 3.78104 31.8581 4.46295 31.8727C8.8846 31.9673 13.1731 32.7611 17.3238 34.2755C17.5048 34.3419 17.6881 34.3982 17.8804 34.4635V24.196C17.6858 24.196 17.5139 24.2028 17.342 24.1949C16.9606 24.178 16.7113 23.9404 16.7124 23.6049C16.7124 23.2693 16.9629 23.0239 17.3454 23.0194C18.1161 23.0104 18.8868 23.0104 19.6575 23.0194C20.0378 23.0239 20.2882 23.2727 20.2871 23.6083C20.2859 23.9427 20.0344 24.178 19.653 24.1949C19.4731 24.2028 19.2932 24.196 19.1259 24.196V34.4658C19.2989 34.405 19.439 34.3566 19.5767 34.307C23.7365 32.7825 28.0364 31.9786 32.4705 31.875C33.2333 31.857 33.4154 31.6813 33.4154 30.9326C33.4154 26.3961 33.4154 21.8585 33.4154 17.3221C33.4154 15.748 33.4177 14.1739 33.4154 12.601C33.4154 12.0459 33.1684 11.7914 32.6276 11.8083C30.2893 11.8837 27.9692 12.1269 25.673 12.583C25.4476 12.628 25.3804 12.7113 25.3531 12.9343C25.1311 14.747 24.3274 16.2682 22.8793 17.4043C22.0209 18.0776 21.5576 18.8871 21.495 19.9714C21.4335 21.0512 20.5614 21.818 19.464 21.8338C18.8549 21.8428 18.2459 21.8394 17.6368 21.8349C16.4267 21.827 15.5694 21.0096 15.5182 19.8172C15.4795 18.9198 15.1289 18.1665 14.4082 17.616C12.7632 16.3616 11.8354 14.7211 11.6248 12.6438H11.6225ZM16.7978 13.5828C17.5059 14.4228 18.1787 15.194 18.814 15.9935C18.9688 16.1882 19.0781 16.472 19.0838 16.7186C19.1111 17.8974 19.0963 19.0774 19.0963 20.2574V20.6391C19.9034 20.6785 20.2768 20.432 20.3076 19.8161C20.3759 18.4221 20.9975 17.3547 22.1029 16.4923C23.9392 15.0578 24.6461 12.5762 23.9118 10.3761C23.1764 8.17261 21.1159 6.59966 18.831 6.49607C16.3151 6.38235 14.0542 7.83708 13.1685 10.1396C12.2771 12.4568 12.9795 14.997 14.9763 16.5654C16.01 17.3772 16.5917 18.3996 16.6714 19.708C16.7158 20.4455 17.1029 20.7247 17.8748 20.62C17.8827 20.5885 17.8987 20.5536 17.8987 20.5198C17.9009 19.315 17.9066 18.1114 17.893 16.9066C17.8918 16.7782 17.8053 16.6307 17.7177 16.5249C16.8809 15.5194 16.0373 14.5196 15.1903 13.522C14.99 13.2855 14.8204 13.0525 14.982 12.7271C15.1414 12.4062 15.4317 12.3893 15.7425 12.3893C17.581 12.3938 19.4207 12.3915 21.2593 12.3915C21.3333 12.3915 21.4232 12.3656 21.4802 12.3983C21.6634 12.5019 21.9139 12.5908 21.989 12.7518C22.063 12.9129 22.03 13.2247 21.9128 13.3509C21.2365 14.0703 20.5284 14.7617 19.8158 15.4474C19.5824 15.6714 19.2204 15.6399 19.0052 15.4271C18.7741 15.1997 18.7639 14.8585 19.0052 14.5984C19.2568 14.3271 19.5312 14.076 19.7919 13.8125C19.8533 13.7506 19.9023 13.6763 19.9763 13.5828H16.7967H16.7978ZM22.0072 34.7338C22.0118 34.7619 22.0175 34.7912 22.022 34.8193H22.3806C26.1716 34.8193 29.9626 34.8193 33.7535 34.8193C35.1026 34.8193 35.805 34.1303 35.805 32.805C35.805 27.4444 35.805 22.0848 35.805 16.7242C35.805 16.6139 35.8084 16.5024 35.8004 16.392C35.7503 15.6748 35.2449 15.0319 34.6119 14.899C34.6119 15.0499 34.6119 15.1963 34.6119 15.3427C34.6119 20.5918 34.6119 25.841 34.6119 31.0913C34.6119 32.2477 33.8503 33.0189 32.6971 33.0505C29.9318 33.1237 27.2007 33.4682 24.5072 34.0909C23.6693 34.2845 22.8406 34.5176 22.0084 34.7326L22.0072 34.7338ZM2.3876 14.8889C1.60095 15.1783 1.19453 15.7908 1.19453 16.6353C1.19339 22.0567 1.19339 27.4781 1.19453 32.8985C1.19453 34.0942 1.93337 34.8182 3.15263 34.8193C6.99368 34.8205 10.8336 34.8193 14.6746 34.8193C14.7748 34.8193 14.875 34.8115 14.9752 34.807C14.908 34.7338 14.842 34.7045 14.7737 34.6854C11.3948 33.708 7.94768 33.1608 4.4288 33.0572C3.11278 33.0178 2.38874 32.2995 2.38874 30.9979C2.38874 25.7858 2.38874 20.5738 2.38874 15.3618V14.8912L2.3876 14.8889Z" fill="#CFD9A7"/>
<path d="M19.0972 1.78143C19.0972 2.15074 19.104 2.51893 19.0949 2.88824C19.0858 3.2857 18.8353 3.54467 18.4858 3.53566C18.1489 3.52778 17.9109 3.27782 17.9064 2.89725C17.8984 2.14736 17.8984 1.39748 17.9064 0.647598C17.9109 0.249011 18.1637 -0.00770516 18.5143 0.000176487C18.8513 0.00805814 19.0858 0.256893 19.0949 0.63859C19.104 1.01916 19.0972 1.40086 19.0972 1.78143Z" fill="#CFD9A7"/>
<path d="M22.6603 5.3091C22.5123 5.19425 22.2732 5.09742 22.2037 4.93078C22.132 4.75963 22.1468 4.44887 22.2629 4.32389C22.823 3.71813 23.4184 3.14164 24.0264 2.58204C24.2654 2.36136 24.566 2.40414 24.7959 2.63722C25.027 2.87029 25.0601 3.16641 24.8358 3.40061C24.2654 3.99736 23.6689 4.57047 23.0712 5.14245C22.9904 5.22014 22.8492 5.23591 22.6603 5.31022V5.3091Z" fill="#CFD9A7"/>
<path d="M14.2782 5.31944C14.0642 5.19108 13.898 5.12803 13.7807 5.01544C13.265 4.52114 12.7607 4.01559 12.2598 3.50666C11.966 3.20829 11.9535 2.88176 12.2063 2.62842C12.459 2.37396 12.796 2.38184 13.0931 2.67008C13.6145 3.17676 14.1268 3.69132 14.6391 4.207C14.8258 4.39616 14.9339 4.63712 14.778 4.87131C14.6618 5.04584 14.4592 5.16406 14.2793 5.32057L14.2782 5.31944Z" fill="#CFD9A7"/>
<path d="M30.9856 26.6295C31.3214 26.616 31.614 26.8254 31.6231 27.2038C31.6322 27.5618 31.3692 27.787 30.8957 27.8197C27.8652 28.0291 24.8916 28.547 21.9829 29.4151C21.819 29.4635 21.6448 29.4984 21.474 29.5041C21.095 29.5153 20.8491 29.3217 20.8058 29.0064C20.7614 28.6776 20.9299 28.4299 21.2942 28.332C22.1787 28.0933 23.0622 27.8455 23.9535 27.635C26.2145 27.1013 28.5095 26.7804 30.9856 26.6295Z" fill="#CFD9A7"/>
<path d="M5.98642 26.555C8.76532 26.7363 11.3826 27.1619 13.9577 27.8341C14.4973 27.9749 15.0335 28.128 15.5674 28.2879C16.0216 28.4241 16.2186 28.7394 16.1002 29.1087C15.9909 29.451 15.6448 29.6018 15.21 29.4679C12.8227 28.7326 10.3887 28.209 7.90467 27.9219C7.28764 27.851 6.66948 27.7958 6.05131 27.7395C5.61529 27.7001 5.35573 27.467 5.37395 27.1169C5.39216 26.7622 5.67677 26.5449 5.98642 26.555Z" fill="#CFD9A7"/>
<path d="M31.6235 24.192C31.6257 24.5331 31.3798 24.7414 30.9575 24.7921C29.4661 24.9723 27.9645 25.0927 26.4903 25.363C24.9557 25.6433 23.4484 26.0701 21.9297 26.4326C21.7977 26.4642 21.6656 26.5002 21.5313 26.525C21.1727 26.5903 20.8892 26.4247 20.8141 26.1129C20.7344 25.7796 20.9063 25.4868 21.2717 25.3832C22.0823 25.1524 22.8917 24.9171 23.7102 24.7156C26.0167 24.1458 28.3596 23.7979 30.7286 23.6189C31.3001 23.5761 31.6212 23.7799 31.6235 24.192Z" fill="#CFD9A7"/>
<path d="M6.26022 20.7266C9.43073 20.9439 12.5341 21.5238 15.5725 22.4414C15.9915 22.5675 16.1839 22.8727 16.0769 23.206C15.963 23.5606 15.6465 23.6969 15.1946 23.5618C13.2308 22.9774 11.2363 22.5225 9.20533 22.2466C8.19782 22.1093 7.18234 22.0237 6.16914 21.9235C5.60107 21.8672 5.34378 21.6634 5.37338 21.2637C5.40298 20.864 5.67506 20.6985 6.26022 20.7255V20.7266Z" fill="#CFD9A7"/>
<path d="M31.6253 21.3502C31.6253 21.6644 31.4078 21.8952 31.0299 21.938C30.4003 22.0089 29.7685 22.054 29.139 22.1181C26.7733 22.3557 24.4566 22.832 22.1763 23.4918C21.9737 23.5504 21.7688 23.5988 21.565 23.6506C21.2019 23.7418 20.9207 23.6112 20.825 23.306C20.7237 22.9795 20.882 22.6609 21.2417 22.5573C22.0989 22.3084 22.9562 22.0562 23.8225 21.8468C26.1312 21.2906 28.4707 20.9258 30.8443 20.776C31.3179 20.7467 31.6264 20.9686 31.6264 21.3502H31.6253Z" fill="#CFD9A7"/>
<path d="M16.0203 25.8776C16.0271 26.3099 15.6412 26.5565 15.1778 26.4372C14.0269 26.1422 12.8873 25.7785 11.7193 25.5781C9.85227 25.2572 7.96704 25.0399 6.0875 24.7944C5.62529 24.7336 5.35663 24.5276 5.37598 24.1661C5.39533 23.8013 5.68905 23.5818 6.14669 23.6122C9.33884 23.8306 12.465 24.4026 15.5273 25.3202C15.8222 25.4081 15.9918 25.5871 16.0214 25.8765L16.0203 25.8776Z" fill="#CFD9A7"/>
<path d="M6.22256 16.5441C7.6251 16.7288 9.02765 16.9089 10.429 17.1026C10.84 17.1589 11.0654 17.4381 11.0153 17.768C10.9618 18.117 10.6476 18.3299 10.2355 18.2781C9.25078 18.1531 8.26718 18.0168 7.2813 17.8941C6.89993 17.8468 6.51514 17.8243 6.13149 17.7883C5.63286 17.7421 5.36077 17.5113 5.37557 17.1487C5.39037 16.7625 5.68067 16.5722 6.22256 16.543V16.5441Z" fill="#CFD9A7"/>
<path d="M6.22328 14.1605C6.94391 14.2337 7.68389 14.3024 8.42272 14.3846C8.78019 14.424 8.99421 14.6762 8.97828 15.0016C8.96234 15.3248 8.71416 15.5781 8.36011 15.5545C7.53248 15.4982 6.70484 15.4193 5.88062 15.3259C5.55503 15.2887 5.35011 14.9971 5.37743 14.6976C5.40476 14.3914 5.64724 14.1752 5.97966 14.1617C6.05366 14.1583 6.1288 14.1617 6.22328 14.1617V14.1605Z" fill="#CFD9A7"/>
</g>
<defs>
<clipPath id="clip0_871_1992">
<rect width="37" height="36" fill="white"/>
</clipPath>
</defs>
</svg>
