<svg width="104" height="103" viewBox="0 0 104 103" fill="none" xmlns="http://www.w3.org/2000/svg">
<path d="M52.0001 0L55.8859 26.1838L67.3704 2.30086L63.3127 28.459L81.3748 8.99898L69.7343 32.8071L92.7693 19.4992L74.58 38.8419L100.541 32.8685L77.4195 46.0272L104 47.9189L78 53.7243L102.838 63.3133L76.2707 61.2498L97.1596 77.6839L72.3849 67.9345L87.4682 89.7535L66.6875 73.1843L74.6252 98.4498L59.6852 76.5334L59.7722 103L52.0001 77.6839L44.228 103L44.3149 76.5334L29.3748 98.4498L37.3127 73.1843L16.5319 89.7535L31.6154 67.9345L6.84042 77.6839L27.7295 61.2498L1.16158 63.3133L26 53.7243L0 47.9189L26.5809 46.0272L3.45882 32.8685L29.4203 38.8419L11.2308 19.4992L34.2658 32.8071L22.6253 8.99898L40.6875 28.459L36.6298 2.30086L48.1143 26.1838L52.0001 0Z" fill="white"/>
</svg>
