<svg width="54" height="54" viewBox="0 0 54 54" fill="none" xmlns="http://www.w3.org/2000/svg">
<path d="M6.92188 20.0742C6.92188 19.1314 6.92188 18.66 7.21477 18.3671C7.50766 18.0742 7.97907 18.0742 8.92187 18.0742H45.0673C46.0101 18.0742 46.4815 18.0742 46.7744 18.3671C47.0673 18.66 47.0673 19.1314 47.0673 20.0742V27.2257C47.0673 28.1685 47.0673 28.6399 46.7744 28.9328C46.4815 29.2257 46.0101 29.2257 45.0673 29.2257H42.3764C41.4336 29.2257 40.9622 29.2257 40.6693 29.5186C40.3764 29.8115 40.3764 30.2829 40.3764 31.2257V42.8379C40.3764 43.7807 40.3764 44.2521 40.0835 44.545C39.7906 44.8379 39.3192 44.8379 38.3764 44.8379H15.6128C14.67 44.8379 14.1986 44.8379 13.9057 44.545C13.6128 44.2521 13.6128 43.7807 13.6128 42.8379V31.2257C13.6128 30.2829 13.6128 29.8115 13.3199 29.5186C13.027 29.2257 12.5556 29.2257 11.6128 29.2257H8.92188C7.97907 29.2257 7.50766 29.2257 7.21477 28.9328C6.92188 28.6399 6.92188 28.1685 6.92188 27.2257V20.0742Z" stroke="white" stroke-width="1.2"/>
<path d="M11.3828 29.2227H42.6071" stroke="white" stroke-width="1.2" stroke-linecap="round"/>
<path d="M26.9922 15.8438L26.9922 44.8377" stroke="white" stroke-width="1.2" stroke-linecap="round"/>
<path d="M26.9949 15.8431L23.2554 12.1035C22.0478 10.896 20.5757 9.98619 18.9557 9.44617L14.0153 7.79936C12.7202 7.36767 11.3828 8.33161 11.3828 9.69673V14.4016C11.3828 15.2624 11.9337 16.0267 12.7504 16.2989L18.0737 18.0734" stroke="white" stroke-width="1.2" stroke-linecap="round"/>
<path d="M26.9933 15.8431L30.7329 12.1035C31.9405 10.896 33.4125 9.98619 35.0326 9.44617L39.973 7.79936C41.2681 7.36767 42.6055 8.33161 42.6055 9.69673V14.4016C42.6055 15.2624 42.0546 16.0267 41.2379 16.2989L35.9146 18.0734" stroke="white" stroke-width="1.2" stroke-linecap="round"/>
</svg>
