<svg width="42" height="42" viewBox="0 0 42 42" fill="none" xmlns="http://www.w3.org/2000/svg">
<path fill-rule="evenodd" clip-rule="evenodd" d="M2.96688 31.2156L0 42L11.0857 39.106C14.1403 40.7643 17.5792 41.6383 21.0787 41.6397H21.0877C32.6129 41.6397 41.9949 32.3023 42 20.8279C42.002 15.2665 39.8282 10.0377 35.8806 6.10377C31.9318 2.16989 26.6815 0.00271633 21.0877 0C9.56059 0 0.180156 9.3358 0.175466 20.8111C0.174293 24.479 1.13701 28.0597 2.96688 31.2156ZM3.70636 20.8122C3.70988 11.2748 11.5068 3.51548 21.0944 3.51548C25.7373 3.51742 30.1008 5.3188 33.3826 8.58826C36.6644 11.8577 38.4704 16.2041 38.4687 20.8262C38.4648 30.3644 30.6679 38.1245 21.0877 38.1245H21.0811C17.9615 38.123 14.9025 37.2894 12.2345 35.7129L11.5993 35.3382L5.02074 37.0554L6.77707 30.6725L6.36347 30.0181C4.62369 27.2638 3.70494 24.0805 3.70636 20.8122Z" fill="white"/>
<path fill-rule="evenodd" clip-rule="evenodd" d="M15.8614 12.1104C15.4697 11.2444 15.0577 11.2269 14.6856 11.2117C14.3809 11.1988 14.0323 11.1996 13.6841 11.1996C13.3355 11.1996 12.7695 11.3298 12.2909 11.8504C11.8119 12.3709 10.4618 13.6292 10.4618 16.1886C10.4618 18.748 12.3344 21.2209 12.5952 21.5683C12.8565 21.9153 16.2099 27.3352 21.5213 29.4201C25.935 31.1529 26.8331 30.8082 27.7915 30.7216C28.7495 30.635 30.8829 29.4633 31.3181 28.2487C31.7536 27.0342 31.7536 25.9935 31.6232 25.7759C31.4924 25.5587 31.1442 25.4289 30.6213 25.1688C30.0988 24.9087 27.5299 23.6501 27.0509 23.4765C26.5719 23.303 26.2237 23.2165 25.8751 23.737C25.5269 24.2575 24.5262 25.4289 24.2211 25.7759C23.9164 26.1233 23.6117 26.1666 23.0888 25.9065C22.5663 25.6457 20.8833 25.097 18.887 23.3249C17.3336 21.9461 16.2851 20.2433 15.98 19.7228C15.6753 19.2023 15.9475 18.9207 16.2095 18.6615C16.4441 18.4283 16.732 18.054 16.9937 17.7502C17.2541 17.4465 17.3415 17.2297 17.5154 16.883C17.6897 16.5356 17.6027 16.2319 17.4719 15.9718C17.3415 15.7117 16.3259 13.139 15.8614 12.1104Z" fill="white"/>
</svg>
