<svg width="340" height="360" viewBox="0 0 340 360" fill="none" xmlns="http://www.w3.org/2000/svg">
<path d="M180.472 190.278C180.813 194.111 173.688 196.21 169.994 190.278C166.003 185.039 168.938 172.872 180.472 169.359C191.336 165.2 208.527 173.183 211.906 190.278C216.21 206.716 203.211 228.891 180.472 232.12C158.44 236.562 131.138 218.57 128.083 190.278C123.454 162.677 146.565 130.427 180.472 127.518C213.722 122.756 251.05 150.815 253.817 190.278C258.74 229.051 225.597 271.37 180.472 273.96C136.014 279.04 88.6277 240.906 86.1728 190.278C80.9439 140.309 124.139 87.975 180.472 85.6772C236.095 80.311 293.6 128.453 295.728 190.278C301.276 251.413 247.99 313.822 180.472 315.8C113.634 321.486 46.0979 263.274 44.2618 190.278C38.4275 117.974 101.74 45.5035 180.472 43.8367C258.5 37.8329 336.122 106.119 337.639 190.278C343.799 273.78 270.388 356.266 180.472 357.641C91.2619 363.937 3.54816 285.634 2.35077 190.278C-4.10217 95.6126 79.3539 3.05203 180.472 1.99609" stroke="#FF5C00" stroke-opacity="0.15" stroke-width="3" stroke-linecap="round"/>
</svg>
