<svg width="360" height="341" viewBox="0 0 360 341" fill="none" xmlns="http://www.w3.org/2000/svg">
<path d="M189.79 160.136C193.603 159.62 196.027 166.641 190.271 170.603C185.22 174.831 172.931 172.458 168.893 161.097C164.24 150.435 171.424 132.896 188.346 128.736C204.569 123.681 227.318 135.648 231.587 158.214C237.037 180.02 220.318 208.119 192.196 212.469C164.836 218.361 131.559 196.756 127.095 163.018C120.812 130.022 147.128 91.4454 186.422 86.869C224.927 80.17 268.724 111.335 273.383 156.293C280.499 200.471 244.582 249.559 194.12 254.336C144.444 261.854 90.1816 221.108 85.2992 164.94C77.3842 109.622 122.835 49.9672 184.497 45.0022C245.312 36.6523 310.102 87.0163 315.179 154.372C323.928 220.878 268.879 291.016 196.045 296.203C124.085 305.351 48.7835 245.433 43.5028 166.861C33.922 89.1908 98.5717 8.51497 182.572 3.13541C265.703 -6.85277 351.473 62.6921 356.976 152.45C367.362 241.277 293.17 332.494 197.97 338.069C103.7 348.863 7.40484 269.746 1.70633 168.782" stroke="#89A280" stroke-opacity="0.15" stroke-width="3" stroke-linecap="round"/>
</svg>
