<svg width="109" height="109" viewBox="0 0 109 109" fill="none" xmlns="http://www.w3.org/2000/svg">
<path d="M33.8552 4.96457L54.8132 54.7666L54.5302 0.735007L54.8345 54.7666L75.2497 4.73952L54.8539 54.7746L92.8598 16.368L54.8692 54.7894L104.679 33.8507L54.8773 54.8087L108.909 54.5257L54.8773 54.8301L104.904 75.2453L54.8693 54.8495L93.2759 92.8553L54.8545 54.8647L75.7932 104.675L54.8352 54.8728L55.1182 108.904L54.8139 54.8728L34.3986 104.9L54.7944 54.8649L16.7886 93.2714L54.7792 54.85L4.96903 75.7888L54.7711 54.8307L0.739467 55.1137L54.7711 54.8094L4.74395 34.3942L54.779 54.79L16.3725 16.7841L54.7939 54.7747L33.8552 4.96457Z" stroke="#CFD9A7" stroke-width="4"/>
</svg>
