<svg width="84" height="84" viewBox="0 0 84 84" fill="none" xmlns="http://www.w3.org/2000/svg">
<path d="M18.8095 2.05463C18.2544 0.662281 20.1524 -0.368568 21.0181 0.855044L28.2797 11.1207C37.6564 24.3763 54.8948 29.48 69.9766 23.4657L81.6564 18.808C83.0489 18.2529 84.0798 20.1508 82.856 21.0167L72.5904 28.2783C59.3348 37.6549 54.2312 54.8933 60.2455 69.975L64.9032 81.6549C65.4583 83.0474 63.5604 84.0783 62.6945 82.8545L55.4329 72.5889C46.0563 59.3333 28.8179 54.2297 13.736 60.244L2.05614 64.9017C0.663798 65.4568 -0.367052 63.5588 0.85656 62.6931L11.1222 55.4315C24.3779 46.0548 29.4815 28.8164 23.4672 13.7345L18.8095 2.05463Z" fill="#FFA800"/>
</svg>
