<svg width="72" height="48" viewBox="0 0 72 48" fill="none" xmlns="http://www.w3.org/2000/svg">
<path d="M15.5756 27.0116L13.5147 26.9643C-9.05943 26.5863 -1.53472 -6.11425 22.621 2.53341C40.4503 8.91282 37.1433 38.2581 18.0679 43.0781C9.63253 45.2046 0.238625 43.6925 7.23613 41.3297C13.2271 39.345 18.0679 33.6273 17.7324 28.9491C17.6365 27.9095 16.7259 27.0116 15.5756 27.0116Z" fill="#89A280"/>
<path d="M59.6211 1.35085C81.3325 9.57321 72.5138 45.4871 48.406 47.0465C42.1274 47.4718 40.4978 46.0069 45.2427 44.2584C49.8438 42.5573 55.643 34.5239 56.2661 29.0896C56.4099 28.0027 55.5473 27.1048 54.4449 27.1048C48.1184 27.1048 45.4823 27.105 41.7918 22.096C32.7334 9.71516 44.7634 -4.27249 59.6211 1.35085Z" fill="#89A280"/>
</svg>
