<svg width="21" height="22" viewBox="0 0 21 22" fill="none" xmlns="http://www.w3.org/2000/svg">
<path d="M10.2198 0.70204C10.2592 0.370153 10.7408 0.370153 10.7802 0.70204L11.1106 3.48626C11.5372 7.08145 14.3717 9.91598 17.9668 10.3426L20.7511 10.6729C21.083 10.7123 21.083 11.1939 20.7511 11.2333L17.9668 11.5637C14.3717 11.9903 11.5372 14.8248 11.1106 18.42L10.7802 21.2042C10.7408 21.5361 10.2592 21.5361 10.2198 21.2042L9.88943 18.42C9.46285 14.8248 6.62832 11.9903 3.03314 11.5637L0.248915 11.2333C-0.0829715 11.1939 -0.0829715 10.7123 0.248915 10.6729L3.03314 10.3426C6.62832 9.91598 9.46285 7.08145 9.88943 3.48626L10.2198 0.70204Z" fill="#FF5C00"/>
</svg>
